
        
		<svg xmlns="http://www.w3.org/2000/svg" xmlns:xlink="http://www.w3.org/1999/xlink" version="1.1" width="3150" 
        height="1678.0228323796337" viewBox="0 0 3150 1678.0228323796337">
			
			<g transform="scale(7.5) translate(10, 10)">
				<defs id="SvgjsDefs4959"></defs><g id="SvgjsG4960" featureKey="symbolContainer" transform="matrix(3.622730851801667,0,0,3.622730851801667,0.00002665622804646003,0.01511963252430107)" fill="#222831"><path xmlns="http://www.w3.org/2000/svg" d="M23.11 55.78L1.69 43.41A3.39 3.39 0 0 1 0 40.48V15.75a3.39 3.39 0 0 1 1.69-2.94L23.11.45a3.39 3.39 0 0 1 3.39 0l21.41 12.37a3.39 3.39 0 0 1 1.69 2.94v24.72a3.39 3.39 0 0 1-1.69 2.94L26.5 55.78a3.39 3.39 0 0 1-3.39 0z"></path></g><g id="SvgjsG4961" featureKey="symbolFeature-0" transform="matrix(8.214285714285714,0,0,8.214285714285714,23.785714285714285,35.785714285714285)" fill="#ffffff"><path xmlns="http://www.w3.org/2000/svg" d="M15 1L8 3 1 1v11l7 3 7-3V1zM7 13.5l-5-2v-9L7 4v9.5zm7-2l-5 2V4l5-1.5v9zM6 6L3 5v1l3 1V6zm0 4L3 9v1l3 1v-1zm7-5l-3 1v1l3-1V5zm0 4l-3 1v1l3-1V9z" fill-rule="nonzero"></path></g><g id="SvgjsG4962" featureKey="nameFeature-0" transform="matrix(3.987240538243402,0,0,3.987240538243402,200,-3.3030296116614153)" fill="#222831"><path d="M0 33.6 l3.92 0 c0.2 2.2 0.68 2.8 1.44 2.8 c1.6 0 1.6 -1.68 1.6 -13.24 l0 -11.96 l-3.04 0 l0 -3.2 l7.04 0 l0 15.16 c0 12.8 0 17.24 -5.6 17.24 c-3.52 0 -4.88 -1.92 -5.36 -6.8 z M16.96 40 l0 -32 l3.6 0 l4.2 20 l0.4 0 l4.2 -20 l3.6 0 l0 32 l-4 0 l0 -16 l-2.84 16 l-2.4 0 l-2.76 -16 l0 16 l-4 0 z M38.160000000000004 30.240000000000002 l4.04 0 c0.08 5.16 0.48 6.16 1.92 6.16 c1.96 0 1.96 -1.64 1.96 -6 c0 -6.4 -7.92 -4.68 -7.92 -13.2 c0 -5 0 -9.6 6 -9.6 c4.44 0 5.64 2.52 5.92 8.56 l-4 0 c-0.16 -4.36 -0.64 -5.36 -1.92 -5.36 c-1.96 0 -1.96 2.16 -1.96 6.4 c0 6.2 7.96 4 7.96 13.2 c0 5.6 0 10 -6.04 10 c-4.64 0 -5.72 -2.76 -5.96 -10.16 z"></path></g><g id="SvgjsG4963" featureKey="sloganFeature-0" transform="matrix(0.5701863887676982,0,0,0.5701863887676982,199.9999999320285,165.22889380257485)" fill="#222831"><path d="M3.74 15.96 c0 0.66666 -0.06 1.2734 -0.18 1.82 s-0.32666 1.0133 -0.62 1.4 s-0.67668 0.68332 -1.15 0.88998 s-1.07 0.31 -1.79 0.31 l0 -1.56 c0.57334 0 1.0167 -0.08334 1.33 -0.25 s0.54334 -0.4 0.69 -0.7 s0.23 -0.65666 0.25 -1.07 s0.03 -0.86 0.03 -1.34 l0 -10.46 l1.44 0 l0 10.96 z M18.128 16.12 c0 1.4133 -0.31666 2.4434 -0.95 3.09 s-1.6633 0.97 -3.09 0.97 c-1.3067 0 -2.2634 -0.36 -2.87 -1.08 s-0.91 -1.7133 -0.91 -2.98 l0 -7.2 c0 -1.3733 0.32334 -2.3934 0.97 -3.06 s1.6633 -1 3.05 -1 c1.32 0 2.2834 0.35 2.89 1.05 s0.91 1.69 0.91 2.97 l0 7.24 z M16.728 16.08 l-0.000019531 -7.22 c0 -0.76 -0.2 -1.3933 -0.6 -1.9 s-1.0067 -0.76 -1.82 -0.76 c-0.97334 0 -1.65 0.25334 -2.03 0.76 s-0.57 1.22 -0.57 2.14 l0 6.9 c0 0.38666 0.04334 0.75 0.13 1.09 s0.22666 0.63666 0.42 0.89 s0.44 0.45334 0.74 0.6 s0.66334 0.22 1.09 0.22 c0.93334 0 1.6067 -0.22666 2.02 -0.68 s0.62 -1.1333 0.62 -2.04 z M32.616 16.12 c0 1.3333 -0.32336 2.3434 -0.97002 3.03 s-1.6433 1.03 -2.99 1.03 c-1.28 0 -2.2434 -0.36666 -2.89 -1.1 s-0.97 -1.72 -0.97 -2.96 l0 -11.12 l1.42 0 l0 11.06 c0 0.37334 0.05 0.72334 0.15 1.05 s0.25 0.61332 0.45 0.85998 s0.45 0.44 0.75 0.58 s0.65 0.21 1.05 0.21 c0.97334 0 1.65 -0.27 2.03 -0.81 s0.57 -1.2633 0.57 -2.17 l0 -10.78 l1.4 0 l0 11.12 z M48.164 20 l-1.72 -0.000019531 l-3.14 -6.06 l-2.6 0 l0 6.06 l-1.34 0 l0 -15 l3.44 0 c1.3733 0 2.46 0.39334 3.26 1.18 s1.2 1.8667 1.2 3.24 c0 0.42666 -0.05666 0.86 -0.17 1.3 s-0.27668 0.85334 -0.49002 1.24 s-0.47668 0.73666 -0.79002 1.05 s-0.67 0.55668 -1.07 0.73002 z M45.84400000000001 9.32 c0 -0.46666 -0.08 -0.88664 -0.24 -1.26 s-0.38 -0.69 -0.66 -0.95 s-0.61334 -0.46 -1 -0.6 s-0.80666 -0.21 -1.26 -0.21 l-1.98 0 l0 6.26 l2.1 0 c1.0667 0 1.84 -0.28666 2.32 -0.86 s0.72 -1.3667 0.72 -2.38 z M62.33200000000001 20 l-1.56 0 l-5.2 -11.8 l0 11.8 l-1.44 0 l0 -15 l1.44 0 l5.22 11.3 l0.12 -11.3 l1.42 0 l0 15 z M77.7 20 l-1.4 0 l-1.06 -4.3 l-4.36 0 l-1.06 4.3 l-1.36 0 l4.06 -15 l1.14 0 z M74.9 14.36 l-1.78 -7.42 l-1.9 7.42 l3.68 0 z M89.668 20 l-6.18 0 l0 -15 l1.4 0 l0 13.56 l4.78 0 l0 1.44 z M114.064 20 l-1.34 0 l0 -11.58 l-3.14 7.62 l-1.36 -0.02 l-3.06 -7.6 l0 11.58 l-1.34 0 l0 -15 l1.34 0 l3.76 9.18 l3.8 -9.18 l1.34 0 l0 15 z M129.272 20 l-1.4 0 l-1.06 -4.3 l-4.36 0 l-1.06 4.3 l-1.36 0 l4.06 -15 l1.14 0 z M126.472 14.36 l-1.78 -7.42 l-1.9 7.42 l3.68 0 z M143.48 20 l-1.56 0 l-5.2 -11.8 l0 11.8 l-1.44 0 l0 -15 l1.44 0 l5.22 11.3 l0.12 -11.3 l1.42 0 l0 15 z M158.848 20 l-1.4 0 l-1.06 -4.3 l-4.36 0 l-1.06 4.3 l-1.36 0 l4.06 -15 l1.14 0 z M156.048 14.36 l-1.78 -7.42 l-1.9 7.42 l3.68 0 z M172.01600000000002 16.12 c0 1.4 -0.31666 2.4266 -0.95 3.08 s-1.6567 0.98 -3.07 0.98 c-1.3067 0 -2.2634 -0.36 -2.87 -1.08 s-0.91 -1.7133 -0.91 -2.98 l0 -7.2 c0 -1.36 0.32 -2.3766 0.96 -3.05 s1.6467 -1.01 3.02 -1.01 c1.32 0 2.2866 0.35 2.9 1.05 s0.92 1.69 0.92 2.97 l0 1.24 l-1.42 0 c0 -0.48 -0.0033398 -0.96334 -0.01 -1.45 s-0.08 -0.92 -0.22 -1.3 s-0.38 -0.69 -0.72 -0.93 s-0.83666 -0.36 -1.49 -0.36 c-0.96 0 -1.6233 0.25 -1.99 0.75 s-0.55 1.1967 -0.55 2.09 l0 7.28 c0 0.86666 0.17666 1.53 0.53 1.99 s0.98334 0.69 1.89 0.69 s1.5667 -0.21666 1.98 -0.65 s0.62 -1.09 0.62 -1.97 l0 -2.66 l-2.98 -0.02 l0 -1.36 l4.36 0.02 l0 3.88 z M185.80400000000003 20 l-7.5 0 l0 -15 l7.36 0 l0 1.52 l-5.98 0 l0 5.16 l5.94 0 l0 1.3 l-5.94 0 l0 5.5 l6.12 0 l0 1.52 z M202.33200000000005 20 l-1.34 0 l0 -11.58 l-3.14 7.62 l-1.36 -0.02 l-3.06 -7.6 l0 11.58 l-1.34 0 l0 -15 l1.34 0 l3.76 9.18 l3.8 -9.18 l1.34 0 l0 15 z M216.70000000000005 20 l-7.5 0 l0 -15 l7.36 0 l0 1.52 l-5.98 0 l0 5.16 l5.94 0 l0 1.3 l-5.94 0 l0 5.5 l6.12 0 l0 1.52 z M230.98800000000006 20 l-1.56 0 l-5.2 -11.8 l0 11.8 l-1.44 0 l0 -15 l1.44 0 l5.22 11.3 l0.12 -11.3 l1.42 0 l0 15 z M244.8160000000001 6.460000000000001 l-3.1 0 l0 13.54 l-1.48 0 l0 -13.54 l-3.1 0 l0 -1.46 l7.68 0 l0 1.46 z M267.0720000000001 16.12 c0 1.2267 -0.3199 2.21 -0.9599 2.95 s-1.5933 1.11 -2.86 1.11 c-0.74666 0 -1.3767 -0.10666 -1.89 -0.32 s-0.93 -0.52 -1.25 -0.92 s-0.55 -0.88 -0.69 -1.44 s-0.20334 -1.1867 -0.19 -1.88 l0.02 -0.52 l1.54 0 c0 0.42666 0.01334 0.86332 0.04 1.31 s0.11332 0.85332 0.25998 1.22 s0.37332 0.66666 0.67998 0.9 s0.74666 0.35 1.32 0.35 c0.88 0 1.5267 -0.23334 1.94 -0.7 s0.62 -1.12 0.62 -1.96 c0 -0.66666 -0.16 -1.1933 -0.48 -1.58 s-0.72 -0.71332 -1.2 -0.97998 s-0.99666 -0.50666 -1.55 -0.72 s-1.07 -0.48 -1.55 -0.8 s-0.88 -0.73 -1.2 -1.23 s-0.48 -1.1633 -0.48 -1.99 c0 -1.3333 0.34334 -2.3434 1.03 -3.03 s1.6967 -1.03 3.03 -1.03 c0.62666 0 1.17 0.1 1.63 0.3 s0.84334 0.48 1.15 0.84 s0.53332 0.78666 0.67998 1.28 s0.22 1.04 0.22 1.64 l0 1.26 l-1.46 0 c0 -0.44 -0.0033398 -0.89666 -0.01 -1.37 s-0.07666 -0.90668 -0.21 -1.3 s-0.35668 -0.71668 -0.67002 -0.97002 s-0.77 -0.38 -1.37 -0.38 c-0.86666 0 -1.52 0.22 -1.96 0.66 s-0.64666 1.0867 -0.62 1.94 l0 0.2 c0.01334 0.41334 0.08334 0.75668 0.21 1.03 s0.3 0.50668 0.52 0.70002 s0.47666 0.36334 0.77 0.51 s0.61334 0.3 0.96 0.46 c0.50666 0.22666 1 0.46666 1.48 0.72 s0.90334 0.55 1.27 0.89 s0.66332 0.74 0.88998 1.2 s0.34 1.01 0.34 1.65 z M280.8200000000001 5 l-3.54 8.16 l0 6.84 l-1.44 0 l0 -6.84 l-3.54 -8.16 l1.6 0 l2.64 6.44 l2.68 -6.44 l1.6 0 z M293.86800000000017 16.12 c0 1.2267 -0.3199 2.21 -0.9599 2.95 s-1.5933 1.11 -2.86 1.11 c-0.74666 0 -1.3767 -0.10666 -1.89 -0.32 s-0.93 -0.52 -1.25 -0.92 s-0.55 -0.88 -0.69 -1.44 s-0.20334 -1.1867 -0.19 -1.88 l0.02 -0.52 l1.54 0 c0 0.42666 0.01334 0.86332 0.04 1.31 s0.11332 0.85332 0.25998 1.22 s0.37332 0.66666 0.67998 0.9 s0.74666 0.35 1.32 0.35 c0.88 0 1.5267 -0.23334 1.94 -0.7 s0.62 -1.12 0.62 -1.96 c0 -0.66666 -0.16 -1.1933 -0.48 -1.58 s-0.72 -0.71332 -1.2 -0.97998 s-0.99666 -0.50666 -1.55 -0.72 s-1.07 -0.48 -1.55 -0.8 s-0.88 -0.73 -1.2 -1.23 s-0.48 -1.1633 -0.48 -1.99 c0 -1.3333 0.34334 -2.3434 1.03 -3.03 s1.6967 -1.03 3.03 -1.03 c0.62666 0 1.17 0.1 1.63 0.3 s0.84334 0.48 1.15 0.84 s0.53332 0.78666 0.67998 1.28 s0.22 1.04 0.22 1.64 l0 1.26 l-1.46 0 c0 -0.44 -0.0033398 -0.89666 -0.01 -1.37 s-0.07666 -0.90668 -0.21 -1.3 s-0.35668 -0.71668 -0.67002 -0.97002 s-0.77 -0.38 -1.37 -0.38 c-0.86666 0 -1.52 0.22 -1.96 0.66 s-0.64666 1.0867 -0.62 1.94 l0 0.2 c0.01334 0.41334 0.08334 0.75668 0.21 1.03 s0.3 0.50668 0.52 0.70002 s0.47666 0.36334 0.77 0.51 s0.61334 0.3 0.96 0.46 c0.50666 0.22666 1 0.46666 1.48 0.72 s0.90334 0.55 1.27 0.89 s0.66332 0.74 0.88998 1.2 s0.34 1.01 0.34 1.65 z M306.7160000000002 6.460000000000001 l-3.1 0 l0 13.54 l-1.48 0 l0 -13.54 l-3.1 0 l0 -1.46 l7.68 0 l0 1.46 z M320.2040000000002 20 l-7.5 0 l0 -15 l7.36 0 l0 1.52 l-5.98 0 l0 5.16 l5.94 0 l0 1.3 l-5.94 0 l0 5.5 l6.12 0 l0 1.52 z M336.7320000000002 20 l-1.34 0 l0 -11.58 l-3.14 7.62 l-1.36 -0.02 l-3.06 -7.6 l0 11.58 l-1.34 0 l0 -15 l1.34 0 l3.76 9.18 l3.8 -9.18 l1.34 0 l0 15 z"></path></g>
			</g>
		</svg>
